<svg width="38" height="38" viewBox="0 0 38 38" fill="none" xmlns="http://www.w3.org/2000/svg">
<g clip-path="url(#clip0_209_16)">
<path d="M13.0277 23.7658H9.5V20.5833H13.0799C16.0534 20.5833 16.2513 23.7658 13.0277 23.7658ZM23.7278 19.5273H28.5063C28.3211 16.8118 24.1838 16.397 23.7278 19.5273ZM12.9548 14.25H9.5V17.4167H13.2826C15.9315 17.4167 16.3495 14.25 12.9548 14.25ZM38 7.91667V30.0833C38 34.4549 34.4565 38 30.0833 38H7.91667C3.5435 38 0 34.4549 0 30.0833V7.91667C0 3.54508 3.5435 0 7.91667 0H30.0833C34.4565 0 38 3.54508 38 7.91667ZM22.1667 12.6667H30.0833V11.0833H22.1667V12.6667ZM16.5427 18.3952C19.5621 16.853 19.4513 11.191 13.6721 11.1055H6.33333V26.904H13.1591C20.3189 26.904 20.197 19.7252 16.5427 18.3952ZM31.5637 19.3483C31.1299 16.5569 29.1444 14.6775 25.8907 14.6775C22.5752 14.6775 20.5833 16.7992 20.5833 20.9269C20.5833 25.0927 22.7478 26.9167 25.992 26.9167C29.2363 26.9167 30.9098 25.1196 31.3753 23.75H28.0329C26.8676 25.1038 23.4523 24.5749 23.6518 21.6078H31.6635C31.6793 20.6039 31.6445 19.8835 31.5637 19.3483Z" fill="#03045E"/>
</g>
<defs>
<clipPath id="clip0_209_16">
<rect width="38" height="38" fill="white"/>
</clipPath>
</defs>
</svg>
